<?xml version="1.0" encoding="UTF-8"?>
<svg xmlns="http://www.w3.org/2000/svg" xmlns:xlink="http://www.w3.org/1999/xlink" width="32px" height="32px" viewBox="0 0 32 32" version="1.1">
<g id="surface1">
<path style="fill-rule:nonzero;fill:rgb(97.254902%,71.372551%,17.647059%);fill-opacity:1;stroke-width:1;stroke-linecap:butt;stroke-linejoin:miter;stroke:rgb(13.725491%,9.411765%,8.235294%);stroke-opacity:1;stroke-miterlimit:10;" d="M 236.755371 272.094727 C 255.493164 248.046875 285.949707 236.328125 315.979004 241.638184 C 319.519043 242.248535 322.998047 243.103027 326.35498 244.20166 C 320.983887 210.205078 295.166016 183.105469 261.413574 176.147461 C 228.088379 169.372559 193.17627 184.997559 175.65918 213.989258 C 161.743164 237.304688 160.095215 265.869141 171.203613 290.588379 C 171.691895 290.100098 172.180176 289.672852 172.668457 289.18457 C 189.819336 273.193359 213.867188 266.784668 236.755371 272.094727 Z M 236.755371 272.094727 " transform="matrix(0.064,0,0,0.064,0,0)"/>
<path style="fill-rule:nonzero;fill:rgb(13.725491%,9.411765%,8.235294%);fill-opacity:1;stroke-width:1;stroke-linecap:butt;stroke-linejoin:miter;stroke:rgb(13.725491%,9.411765%,8.235294%);stroke-opacity:1;stroke-miterlimit:10;" d="M 171.203613 290.588379 C 160.095215 265.869141 161.743164 237.304688 175.65918 213.989258 C 193.17627 185.058594 228.149414 169.372559 261.413574 176.147461 C 295.10498 183.105469 320.983887 210.205078 326.293945 244.20166 C 331.848145 246.032715 337.158203 248.413086 342.163086 251.403809 C 339.84375 212.585449 314.758301 178.771973 278.320312 165.344238 C 240.600586 151.489258 196.411133 163.696289 171.020508 194.763184 C 146.057129 225.341797 141.784668 269.042969 161.010742 303.527832 C 163.879395 298.828125 167.297363 294.494629 171.203613 290.588379 Z M 171.203613 290.588379 " transform="matrix(0.064,0,0,0.064,0,0)"/>
<path style="fill-rule:nonzero;fill:rgb(13.725491%,9.411765%,8.235294%);fill-opacity:1;stroke-width:1;stroke-linecap:butt;stroke-linejoin:miter;stroke:rgb(13.725491%,9.411765%,8.235294%);stroke-opacity:1;stroke-miterlimit:10;" d="M 253.051758 131.530762 L 253.051758 97.900391 C 253.051758 88.256836 238.098145 88.195801 238.098145 97.900391 L 238.098145 131.530762 C 238.098145 141.174316 253.051758 141.235352 253.051758 131.530762 Z M 245.544434 97.900391 Z M 245.544434 97.900391 " transform="matrix(0.064,0,0,0.064,0,0)"/>
<path style="fill-rule:nonzero;fill:rgb(13.725491%,9.411765%,8.235294%);fill-opacity:1;stroke-width:1;stroke-linecap:butt;stroke-linejoin:miter;stroke:rgb(13.725491%,9.411765%,8.235294%);stroke-opacity:1;stroke-miterlimit:10;" d="M 176.635742 152.038574 C 181.518555 160.400391 194.458008 152.832031 189.63623 144.470215 L 172.851562 115.356445 C 168.029785 106.994629 155.029297 114.501953 159.851074 122.924805 Z M 183.166504 148.254395 L 166.320801 119.07959 Z M 183.166504 148.254395 " transform="matrix(0.064,0,0,0.064,0,0)"/>
<path style="fill-rule:nonzero;fill:rgb(13.725491%,9.411765%,8.235294%);fill-opacity:1;stroke-width:1;stroke-linecap:butt;stroke-linejoin:miter;stroke:rgb(13.725491%,9.411765%,8.235294%);stroke-opacity:1;stroke-miterlimit:10;" d="M 141.235352 187.5 L 112.060547 170.654297 C 103.69873 165.83252 96.130371 178.771973 104.492188 183.654785 L 133.666992 200.500488 C 142.028809 205.26123 149.597168 192.321777 141.235352 187.5 Z M 108.276367 177.124023 L 137.451172 193.969727 Z M 108.276367 177.124023 " transform="matrix(0.064,0,0,0.064,0,0)"/>
<path style="fill-rule:nonzero;fill:rgb(13.725491%,9.411765%,8.235294%);fill-opacity:1;stroke-width:1;stroke-linecap:butt;stroke-linejoin:miter;stroke:rgb(13.725491%,9.411765%,8.235294%);stroke-opacity:1;stroke-miterlimit:10;" d="M 87.036133 263.916016 L 120.727539 263.916016 C 130.371094 263.916016 130.371094 248.901367 120.727539 248.901367 L 87.036133 248.901367 C 77.392578 248.901367 77.392578 263.916016 87.036133 263.916016 Z M 120.727539 256.408691 Z M 120.727539 256.408691 " transform="matrix(0.064,0,0,0.064,0,0)"/>
<path style="fill-rule:nonzero;fill:rgb(13.725491%,9.411765%,8.235294%);fill-opacity:1;stroke-width:1;stroke-linecap:butt;stroke-linejoin:miter;stroke:rgb(13.725491%,9.411765%,8.235294%);stroke-opacity:1;stroke-miterlimit:10;" d="M 112.060547 342.102051 L 141.235352 325.317383 C 149.597168 320.495605 142.028809 307.495117 133.666992 312.316895 L 104.492188 329.101562 C 96.130371 333.984375 103.69873 346.984863 112.060547 342.102051 Z M 137.451172 318.847656 L 108.276367 335.632324 Z M 137.451172 318.847656 " transform="matrix(0.064,0,0,0.064,0,0)"/>
<path style="fill-rule:nonzero;fill:rgb(13.725491%,9.411765%,8.235294%);fill-opacity:1;stroke-width:1;stroke-linecap:butt;stroke-linejoin:miter;stroke:rgb(13.725491%,9.411765%,8.235294%);stroke-opacity:1;stroke-miterlimit:10;" d="M 370.422363 263.916016 L 404.052734 263.916016 C 413.696289 263.916016 413.757324 248.901367 404.052734 248.901367 L 370.422363 248.901367 C 360.778809 248.901367 360.778809 263.916016 370.422363 263.916016 Z M 370.422363 256.408691 Z M 370.422363 256.408691 " transform="matrix(0.064,0,0,0.064,0,0)"/>
<path style="fill-rule:nonzero;fill:rgb(13.725491%,9.411765%,8.235294%);fill-opacity:1;stroke-width:1;stroke-linecap:butt;stroke-linejoin:miter;stroke:rgb(13.725491%,9.411765%,8.235294%);stroke-opacity:1;stroke-miterlimit:10;" d="M 357.48291 200.439453 L 386.657715 183.59375 C 395.019531 178.771973 387.451172 165.83252 379.089355 170.593262 L 349.914551 187.438965 C 341.552734 192.321777 349.121094 205.26123 357.48291 200.439453 Z M 382.8125 177.124023 L 353.69873 193.969727 Z M 382.8125 177.124023 " transform="matrix(0.064,0,0,0.064,0,0)"/>
<path style="fill-rule:nonzero;fill:rgb(13.725491%,9.411765%,8.235294%);fill-opacity:1;stroke-width:1;stroke-linecap:butt;stroke-linejoin:miter;stroke:rgb(13.725491%,9.411765%,8.235294%);stroke-opacity:1;stroke-miterlimit:10;" d="M 314.453125 152.038574 L 331.298828 122.924805 C 336.120605 114.501953 323.181152 106.933594 318.29834 115.356445 L 301.452637 144.470215 C 296.691895 152.832031 309.631348 160.400391 314.453125 152.038574 Z M 324.829102 119.140625 L 307.983398 148.254395 Z M 324.829102 119.140625 " transform="matrix(0.064,0,0,0.064,0,0)"/>
<path style="fill-rule:nonzero;fill:rgb(13.725491%,9.411765%,8.235294%);fill-opacity:1;stroke-width:1;stroke-linecap:butt;stroke-linejoin:miter;stroke:rgb(13.725491%,9.411765%,8.235294%);stroke-opacity:1;stroke-miterlimit:10;" d="M 377.258301 293.395996 C 377.807617 294.799805 378.295898 296.203613 378.78418 297.668457 C 379.211426 298.950195 379.272461 300.415039 378.90625 301.757812 C 402.526855 310.36377 416.503906 334.655762 412.17041 359.375 C 407.775879 384.094238 386.291504 402.099609 361.206055 402.099609 L 220.52002 402.099609 C 198.730469 402.099609 178.466797 390.686035 167.236328 372.009277 C 155.944824 353.271484 155.334473 330.078125 165.527344 310.791016 C 164.550781 309.326172 163.574219 307.861328 162.658691 306.396484 C 162.109375 305.419922 161.560059 304.504395 161.071777 303.588867 C 152.404785 317.993164 149.169922 334.960938 151.855469 351.5625 C 155.639648 373.901367 169.98291 392.944336 190.429688 402.770996 C 202.087402 408.203125 214.172363 409.606934 226.867676 409.606934 L 350.280762 409.606934 C 360.107422 409.606934 369.812012 409.912109 379.333496 406.799316 C 403.930664 398.742676 421.142578 374.938965 420.410156 348.937988 C 419.555664 322.998047 402.160645 300.598145 377.258301 293.395996 Z M 377.258301 293.395996 " transform="matrix(0.064,0,0,0.064,0,0)"/>
<path style="fill-rule:nonzero;fill:rgb(13.725491%,9.411765%,8.235294%);fill-opacity:1;stroke-width:1;stroke-linecap:butt;stroke-linejoin:miter;stroke:rgb(13.725491%,9.411765%,8.235294%);stroke-opacity:1;stroke-miterlimit:10;" d="M 220.52002 277.648926 C 227.050781 277.648926 233.520508 278.625488 239.746094 280.639648 C 258.728027 252.01416 295.043945 240.356445 327.209473 252.502441 C 327.026367 249.694824 326.721191 246.948242 326.293945 244.20166 C 322.937012 243.103027 319.519043 242.248535 315.979004 241.638184 C 286.010742 236.328125 255.493164 248.046875 236.816406 272.094727 C 238.464355 272.460938 240.112305 272.949219 241.760254 273.4375 L 233.337402 276.916504 C 234.436035 275.268555 235.595703 273.681641 236.816406 272.094727 C 213.928223 266.784668 189.880371 273.193359 172.729492 289.18457 C 172.241211 289.672852 171.691895 290.100098 171.264648 290.588379 C 172.363281 293.029785 173.583984 295.349121 174.926758 297.668457 C 186.645508 284.912109 203.186035 277.648926 220.52002 277.648926 Z M 220.52002 277.648926 " transform="matrix(0.064,0,0,0.064,0,0)"/>
<path style="fill-rule:nonzero;fill:rgb(13.725491%,9.411765%,8.235294%);fill-opacity:1;stroke-width:1;stroke-linecap:butt;stroke-linejoin:miter;stroke:rgb(13.725491%,9.411765%,8.235294%);stroke-opacity:1;stroke-miterlimit:10;" d="M 241.699219 273.4375 C 240.05127 272.949219 238.40332 272.460938 236.694336 272.094727 C 235.534668 273.681641 234.313965 275.268555 233.215332 276.916504 Z M 241.699219 273.4375 " transform="matrix(0.064,0,0,0.064,0,0)"/>
<path style="fill-rule:nonzero;fill:rgb(13.725491%,9.411765%,8.235294%);fill-opacity:1;stroke-width:1;stroke-linecap:butt;stroke-linejoin:miter;stroke:rgb(13.725491%,9.411765%,8.235294%);stroke-opacity:1;stroke-miterlimit:10;" d="M 342.224121 260.253906 C 354.125977 268.310547 363.40332 279.541016 369.018555 292.785645 C 370.422363 292.175293 372.009277 292.053223 373.535156 292.419434 C 374.755859 292.663574 376.037598 293.029785 377.258301 293.395996 C 370.605469 275.878906 358.215332 261.108398 342.163086 251.403809 C 342.224121 253.051758 342.346191 254.699707 342.346191 256.408691 C 342.346191 257.69043 342.285156 258.972168 342.224121 260.253906 Z M 342.224121 260.253906 " transform="matrix(0.064,0,0,0.064,0,0)"/>
<path style="fill-rule:nonzero;fill:rgb(13.725491%,9.411765%,8.235294%);fill-opacity:1;stroke-width:1;stroke-linecap:butt;stroke-linejoin:miter;stroke:rgb(13.725491%,9.411765%,8.235294%);stroke-opacity:1;stroke-miterlimit:10;" d="M 369.018555 292.785645 C 369.934082 294.98291 370.788574 297.302246 371.520996 299.621582 C 374.023438 300.170898 376.525879 300.842285 378.90625 301.757812 C 379.272461 300.415039 379.211426 298.950195 378.78418 297.668457 C 378.295898 296.203613 377.746582 294.799805 377.258301 293.395996 C 376.037598 293.029785 374.755859 292.663574 373.535156 292.358398 C 372.009277 292.053223 370.422363 292.175293 369.018555 292.785645 Z M 369.018555 292.785645 " transform="matrix(0.064,0,0,0.064,0,0)"/>
<path style="fill-rule:nonzero;fill:rgb(13.725491%,9.411765%,8.235294%);fill-opacity:1;stroke-width:1;stroke-linecap:butt;stroke-linejoin:miter;stroke:rgb(13.725491%,9.411765%,8.235294%);stroke-opacity:1;stroke-miterlimit:10;" d="M 342.346191 256.408691 C 342.407227 248.10791 331.359863 246.948242 328.186035 252.929688 C 332.885742 254.760742 337.341309 257.141113 341.552734 259.887695 C 342.102051 258.789062 342.346191 257.629395 342.346191 256.408691 Z M 342.346191 256.408691 " transform="matrix(0.064,0,0,0.064,0,0)"/>
<path style="fill-rule:nonzero;fill:rgb(13.725491%,9.411765%,8.235294%);fill-opacity:1;stroke-width:1;stroke-linecap:butt;stroke-linejoin:miter;stroke:rgb(13.725491%,9.411765%,8.235294%);stroke-opacity:1;stroke-miterlimit:10;" d="M 342.224121 260.253906 C 342.285156 258.972168 342.346191 257.69043 342.346191 256.408691 C 342.346191 257.568359 342.102051 258.789062 341.552734 259.82666 Z M 342.224121 260.253906 " transform="matrix(0.064,0,0,0.064,0,0)"/>
<path style="fill-rule:nonzero;fill:rgb(13.725491%,9.411765%,8.235294%);fill-opacity:1;stroke-width:1;stroke-linecap:butt;stroke-linejoin:miter;stroke:rgb(13.725491%,9.411765%,8.235294%);stroke-opacity:1;stroke-miterlimit:10;" d="M 165.527344 310.791016 C 168.09082 306.030273 171.203613 301.574707 174.865723 297.668457 C 173.522949 295.349121 172.302246 292.96875 171.203613 290.588379 C 167.297363 294.494629 163.879395 298.828125 161.071777 303.588867 C 161.560059 304.504395 162.109375 305.480957 162.658691 306.396484 C 163.574219 307.861328 164.550781 309.326172 165.527344 310.791016 Z M 165.527344 310.791016 " transform="matrix(0.064,0,0,0.064,0,0)"/>
<path style="fill-rule:nonzero;fill:rgb(13.725491%,9.411765%,8.235294%);fill-opacity:1;stroke-width:1;stroke-linecap:butt;stroke-linejoin:miter;stroke:rgb(13.725491%,9.411765%,8.235294%);stroke-opacity:1;stroke-miterlimit:10;" d="M 327.209473 252.502441 L 328.186035 252.868652 C 331.359863 246.887207 342.407227 248.10791 342.346191 256.408691 C 342.346191 254.699707 342.285156 253.051758 342.163086 251.403809 C 337.158203 248.413086 331.848145 245.97168 326.35498 244.20166 C 326.782227 246.948242 327.087402 249.755859 327.209473 252.502441 Z M 327.209473 252.502441 " transform="matrix(0.064,0,0,0.064,0,0)"/>
<path style=" stroke:none;fill-rule:nonzero;fill:rgb(100%,100%,100%);fill-opacity:1;" d="M 25.941406 22.238281 C 26.007812 23.460938 25.289062 24.625 24.140625 25.066406 C 23.621094 25.265625 23.097656 25.253906 22.558594 25.253906 L 15.167969 25.253906 C 14.816406 25.253906 14.464844 25.257812 14.113281 25.253906 C 12.925781 25.257812 11.820312 24.65625 11.171875 23.660156 C 10.523438 22.660156 10.429688 21.40625 10.914062 20.320312 C 11.019531 20.085938 11.148438 19.863281 11.300781 19.65625 C 11.347656 19.589844 11.402344 19.523438 11.457031 19.464844 C 12.375 18.394531 13.859375 18.011719 15.207031 18.429688 C 15.421875 18.492188 15.632812 18.382812 15.75 18.207031 C 16.6875 16.832031 18.402344 16.085938 20.046875 16.410156 C 20.351562 16.46875 20.648438 16.5625 20.933594 16.683594 C 20.988281 16.710938 21.042969 16.734375 21.097656 16.761719 C 21.152344 16.789062 21.222656 16.824219 21.28125 16.855469 C 22.242188 17.382812 22.96875 18.253906 23.304688 19.296875 C 23.328125 19.472656 23.46875 19.613281 23.644531 19.644531 C 24.890625 19.910156 25.871094 20.945312 25.941406 22.238281 Z M 25.941406 22.238281 "/>
<path style=" stroke:none;fill-rule:nonzero;fill:rgb(13.725491%,9.411765%,8.235294%);fill-opacity:1;" d="M 24.25 19.3125 C 25.761719 19.863281 26.65625 21.417969 26.378906 23 C 26.097656 24.582031 24.722656 25.734375 23.117188 25.734375 L 14.113281 25.734375 C 12.542969 25.738281 11.113281 24.8125 10.472656 23.375 C 9.832031 21.9375 10.097656 20.257812 11.152344 19.089844 C 12.203125 17.917969 13.84375 17.476562 15.34375 17.964844 C 16.558594 16.132812 18.882812 15.382812 20.941406 16.160156 L 21.003906 16.1875 C 21.304688 16.304688 21.59375 16.453125 21.863281 16.632812 C 21.875 16.640625 21.890625 16.652344 21.902344 16.660156 C 22.664062 17.171875 23.257812 17.894531 23.617188 18.738281 C 23.675781 18.878906 23.730469 19.027344 23.777344 19.179688 C 23.9375 19.210938 24.097656 19.253906 24.25 19.3125 Z M 24.140625 25.066406 C 25.292969 24.625 26.007812 23.460938 25.941406 22.238281 C 25.871094 20.945312 24.890625 19.910156 23.652344 19.640625 C 23.472656 19.613281 23.335938 19.472656 23.3125 19.292969 C 22.972656 18.25 22.25 17.378906 21.289062 16.855469 C 21.222656 16.820312 21.167969 16.789062 21.101562 16.757812 C 21.039062 16.726562 20.996094 16.707031 20.9375 16.683594 C 20.65625 16.558594 20.359375 16.464844 20.054688 16.40625 C 18.40625 16.085938 16.695312 16.828125 15.757812 18.207031 C 15.640625 18.378906 15.429688 18.492188 15.214844 18.425781 C 13.863281 18.007812 12.382812 18.394531 11.460938 19.460938 C 11.40625 19.527344 11.355469 19.589844 11.304688 19.652344 C 11.152344 19.859375 11.023438 20.082031 10.921875 20.316406 C 10.433594 21.402344 10.53125 22.660156 11.175781 23.65625 C 11.824219 24.652344 12.933594 25.253906 14.121094 25.253906 C 14.472656 25.257812 14.824219 25.253906 15.171875 25.253906 L 22.558594 25.253906 C 23.097656 25.253906 23.621094 25.265625 24.140625 25.066406 Z M 24.140625 25.066406 "/>
</g>
</svg>
